<?xml version="1.0" encoding="UTF-8" standalone="no"?>
<!-- Created with Inkscape (http://www.inkscape.org/) -->

<svg
   xmlns:dc="http://purl.org/dc/elements/1.1/"
   xmlns:cc="http://creativecommons.org/ns#"
   xmlns:rdf="http://www.w3.org/1999/02/22-rdf-syntax-ns#"
   xmlns:svg="http://www.w3.org/2000/svg"
   xmlns="http://www.w3.org/2000/svg"
   xmlns:sodipodi="http://sodipodi.sourceforge.net/DTD/sodipodi-0.dtd"
   xmlns:inkscape="http://www.inkscape.org/namespaces/inkscape"
   width="235.93912"
   height="188.67671"
   id="svg2"
   version="1.1"
   inkscape:version="0.48.4 r9939"
   sodipodi:docname="portfolio.svg">
  <defs
     id="defs4" />
  <sodipodi:namedview
     id="base"
     pagecolor="#ffffff"
     bordercolor="#666666"
     borderopacity="1.0"
     inkscape:pageopacity="0.0"
     inkscape:pageshadow="2"
     inkscape:zoom="0.7"
     inkscape:cx="-67.848654"
     inkscape:cy="-135.47784"
     inkscape:document-units="px"
     inkscape:current-layer="layer1"
     showgrid="false"
     inkscape:window-width="1920"
     inkscape:window-height="1003"
     inkscape:window-x="-9"
     inkscape:window-y="-9"
     inkscape:window-maximized="1"
     fit-margin-top="0"
     fit-margin-left="0"
     fit-margin-right="0"
     fit-margin-bottom="0" />
  <metadata
     id="metadata7">
    <rdf:RDF>
      <cc:Work
         rdf:about="">
        <dc:format>image/svg+xml</dc:format>
        <dc:type
           rdf:resource="http://purl.org/dc/dcmitype/StillImage" />
        <dc:title></dc:title>
      </cc:Work>
    </rdf:RDF>
  </metadata>
  <g
     inkscape:label="Layer 1"
     inkscape:groupmode="layer"
     id="layer1"
     transform="translate(-163.78757,-343.49108)">
    <g
       id="g3910"
       transform="matrix(0.5691024,0,0,0.5691024,70.575669,148.00948)">
      <path
         sodipodi:nodetypes="ccsccccscccssccccsscsccccsccsccccccc"
         inkscape:connector-curvature="0"
         id="rect2985"
         d="m 164.375,397.1875 c 3.87218,36.99006 7.32385,99.80488 10,149.90625 2.94701,8.05973 10.62622,13.6875 19.8125,13.6875 l 147.90625,0 0,-34.875 60.8125,0 0,34.875 148.40625,0 c 9.48276,0 17.31481,-5.99026 20.03125,-14.46875 1.96518,-49.88601 2.62748,-113.94097 6.4375,-149.125 z m 208.46875,141 c -3.12351,0 -5.65625,2.53274 -5.65625,5.65625 0,1.87516 0.93846,3.53354 2.34375,4.5625 l -1.3125,11.90625 9.28125,0 -1.28125,-11.90625 c 1.38933,-1.03049 2.28125,-2.69986 2.28125,-4.5625 0,-3.12351 -2.53275,-5.65625 -5.65625,-5.65625 z m 198.5,31.46875 c -5.73901,3.86327 -12.62617,6.125 -20.03125,6.125 l -148.40625,0 0,37.34375 -60.8125,0 0,-37.34375 -147.90625,0 c -7.30011,0 -14.11723,-2.2052 -19.8125,-5.96875 l -5,104.625 c 63.83025,-6.79424 133.28228,0.27355 202.78125,-0.375 69.13141,-0.64512 138.30607,-5.45923 204.90625,0.375 z m -214.5625,3.40625 0,28.9375 31.78125,0 0,-28.9375 z"
         style="fill:#000000;fill-opacity:1;stroke:#000000;stroke-width:1.17486966;stroke-linecap:round;stroke-linejoin:miter;stroke-miterlimit:4;stroke-dasharray:none;stroke-dashoffset:0" />
      <path
         inkscape:connector-curvature="0"
         id="rect3795"
         d="m 370.36607,343.99108 c -28.33333,0 -57.25744,1.56101 -86.78125,4.65625 -5.5098,0.57764 -10,4.46 -10,10 0,5.54 4.49,10.57578 10,10 56.66667,-5.9215 113.33333,-6.4547 170,0 5.50441,0.62699 10,-4.46 10,-10 0,-5.54 -4.49567,-9.37231 -10,-10 -27.14285,-3.09524 -54.88542,-4.65625 -83.21875,-4.65625 z m -85.90625,8.21875 c 3.45178,0 6.25,2.79822 6.25,6.25 0,3.45178 -2.79822,6.25 -6.25,6.25 -3.45178,0 -6.25,-2.79822 -6.25,-6.25 0,-3.45178 2.79822,-6.25 6.25,-6.25 z m 168.25,0.34375 c 3.45178,0 6.25,2.79822 6.25,6.25 0,3.45178 -2.79822,6.25 -6.25,6.25 -3.45178,0 -6.25,-2.79822 -6.25,-6.25 0,-3.45178 2.79822,-6.25 6.25,-6.25 z"
         style="fill:#000000;fill-opacity:1;stroke:#000000;stroke-width:1;stroke-linecap:round;stroke-linejoin:miter;stroke-miterlimit:4;stroke-dashoffset:0" />
      <path
         inkscape:transform-center-x="3.23701"
         inkscape:transform-center-y="20.337626"
         sodipodi:nodetypes="sssssss"
         inkscape:connector-curvature="0"
         id="rect3820"
         d="m 284.75496,355.72501 c 2.49365,0.39689 4.18165,2.72394 3.78475,5.21758 l -4.96953,31.22281 c -0.3969,2.49364 -2.72395,4.18164 -5.2176,3.78474 -2.49364,-0.3969 -4.18164,-2.72394 -3.78474,-5.21758 l 4.96954,-31.22281 c 0.39689,-2.49364 2.72394,-4.18164 5.21758,-3.78474 z"
         style="fill:#000000;fill-opacity:1;stroke:#000000;stroke-width:0.45578232;stroke-linecap:round;stroke-linejoin:miter;stroke-miterlimit:4;stroke-dashoffset:0" />
      <path
         sodipodi:nodetypes="ssccsssccss"
         inkscape:connector-curvature="0"
         id="path3859"
         d="m 278.88008,381.4375 c -6.1581,0 -11.25801,4.85003 -11.66175,10.91212 -0.0171,0.25638 -0.0258,6.51493 -0.0258,6.77538 l 5.40625,0 c 0,-0.23067 0.0122,-6.45818 0.0361,-6.68194 0.33703,-3.15697 2.99077,-5.56806 6.24511,-5.56806 3.27052,0 5.90694,2.43513 6.21906,5.61522 0.0205,0.20855 0.0309,6.4203 0.0309,6.63478 l 5.40625,0 c 0,-0.32009 -0.013,-6.63732 -0.0386,-6.95118 -0.48677,-5.97978 -5.51923,-10.73632 -11.61768,-10.73632 z"
         style="font-size:medium;font-style:normal;font-variant:normal;font-weight:normal;font-stretch:normal;text-indent:0;text-align:start;text-decoration:none;line-height:normal;letter-spacing:normal;word-spacing:normal;text-transform:none;direction:ltr;block-progression:tb;writing-mode:lr-tb;text-anchor:start;baseline-shift:baseline;color:#000000;fill:#000000;fill-opacity:1;fill-rule:nonzero;stroke:none;stroke-width:8;marker:none;visibility:visible;display:inline;overflow:visible;enable-background:accumulate;font-family:Sans;-inkscape-font-specification:Sans" />
      <path
         inkscape:transform-center-x="-3.23701"
         inkscape:transform-center-y="20.337626"
         sodipodi:nodetypes="sssssss"
         inkscape:connector-curvature="0"
         id="rect3820-4"
         d="m 452.25033,355.61781 c -2.49365,0.39689 -4.18165,2.72394 -3.78475,5.21758 l 4.96953,31.22281 c 0.3969,2.49364 2.72395,4.18164 5.2176,3.78474 2.49364,-0.3969 4.18164,-2.72394 3.78474,-5.21758 l -4.96954,-31.22281 c -0.39689,-2.49364 -2.72394,-4.18164 -5.21758,-3.78474 z"
         style="fill:#000000;fill-opacity:1;stroke:#000000;stroke-width:0.45578232;stroke-linecap:round;stroke-linejoin:miter;stroke-miterlimit:4;stroke-dashoffset:0" />
      <path
         sodipodi:nodetypes="ssccsssccss"
         inkscape:connector-curvature="0"
         id="path3859-8"
         d="m 458.12521,381.3303 c 6.1581,0 11.25801,4.85003 11.66175,10.91212 0.0171,0.25638 0.0258,6.51493 0.0258,6.77538 l -5.40625,0 c 0,-0.23067 -0.0122,-6.45818 -0.0361,-6.68194 -0.33703,-3.15697 -2.99077,-5.56806 -6.24511,-5.56806 -3.27052,0 -5.90694,2.43513 -6.21906,5.61522 -0.0205,0.20855 -0.0309,6.4203 -0.0309,6.63478 l -5.40625,0 c 0,-0.32009 0.013,-6.63732 0.0386,-6.95118 0.48677,-5.97978 5.51923,-10.73632 11.61768,-10.73632 z"
         style="font-size:medium;font-style:normal;font-variant:normal;font-weight:normal;font-stretch:normal;text-indent:0;text-align:start;text-decoration:none;line-height:normal;letter-spacing:normal;word-spacing:normal;text-transform:none;direction:ltr;block-progression:tb;writing-mode:lr-tb;text-anchor:start;baseline-shift:baseline;color:#000000;fill:#000000;fill-opacity:1;fill-rule:nonzero;stroke:none;stroke-width:8;marker:none;visibility:visible;display:inline;overflow:visible;enable-background:accumulate;font-family:Sans;-inkscape-font-specification:Sans" />
    </g>
  </g>
</svg>
